<?xml version="1.0" encoding="UTF-8"?>
<!DOCTYPE svg PUBLIC "-//W3C//DTD SVG 1.1//EN" "http://www.w3.org/Graphics/SVG/1.1/DTD/svg11.dtd">
<!-- Creator: CorelDRAW -->
<svg xmlns="http://www.w3.org/2000/svg" xml:space="preserve" width="10in" height="10in" version="1.1" style="shape-rendering:geometricPrecision; text-rendering:geometricPrecision; image-rendering:optimizeQuality; fill-rule:evenodd; clip-rule:evenodd"
viewBox="0 0 10000 10000"
 xmlns:xlink="http://www.w3.org/1999/xlink"
 xmlns:xodm="http://www.corel.com/coreldraw/odm/2003">
 <defs>
  <style type="text/css">
   <![CDATA[
    .fil0 {fill:none}
    .fil2 {fill:#1F1F1F}
    .fil9 {fill:#CD6012}
    .fil13 {fill:#DA9020}
    .fil8 {fill:#E3AE39}
    .fil7 {fill:#E9C462}
    .fil1 {fill:#F2E09E}
    .fil5 {fill:#FBFBFB}
    .fil3 {fill:white}
    .fil12 {fill:white}
    .fil11 {fill:#1F1F1F;fill-rule:nonzero}
    .fil4 {fill:#CD6012;fill-rule:nonzero}
    .fil6 {fill:#DA9020;fill-rule:nonzero}
    .fil10 {fill:#1F1F1F;fill-rule:nonzero}
   ]]>
  </style>
 </defs>
 <g id="Layer_x0020_1">
  <metadata id="CorelCorpID_0Corel-Layer"/>
  <rect class="fil0" width="10000" height="10000"/>
  <path class="fil1" d="M6459.37 1935.41c-2050.3,0 -2822.89,3647.41 -3011.45,3647.41 -1704.17,0 -4095.96,135.91 -3027.52,2507.06l8234.51 0c727.14,-622.31 1190.02,-1146.53 1190.02,-2607.41 0,-1460.89 -1561.28,-3547.06 -3385.56,-3547.06z"/>
  <rect class="fil2" y="8089.89" width="10000" height="120.17"/>
  <g id="_1007663648">
   <rect class="fil3" x="466.15" y="4364.58" width="3629.38" height="3687.75" rx="78.5" ry="203.12"/>
   <path class="fil4" d="M656.68 4327.03l3248.31 0c62.57,0 119.53,25.62 160.86,66.92l0.06 0.06 0.06 0.06c41.3,41.33 66.92,98.3 66.92,160.86l0 3307.04c0,62.56 -25.62,119.53 -66.92,160.86l-0.06 0.06 -0.06 0.06c-41.33,41.3 -98.3,66.92 -160.86,66.92l-3248.31 0c-62.57,0 -119.53,-25.62 -160.86,-66.92l-0.06 -0.06 -0.06 -0.06c-41.3,-41.33 -66.92,-98.3 -66.92,-160.86l0 -3307.04c0,-62.57 25.62,-119.53 66.92,-160.86l0.06 -0.06 0.06 -0.06c41.33,-41.3 98.3,-66.92 160.86,-66.92zm3248.31 53.73l-3248.31 0c-47.91,0 -91.47,19.59 -122.97,51.08l-0.12 0.12c-31.5,31.5 -51.08,75.06 -51.08,122.97l0 3307.04c0,47.91 19.59,91.47 51.08,122.97l0.12 0.12c31.5,31.5 75.06,51.08 122.97,51.08l3248.31 0c47.91,0 91.47,-19.59 122.97,-51.08l0.12 -0.12c31.5,-31.5 51.08,-75.06 51.08,-122.97l0 -3307.04c0,-47.91 -19.59,-91.47 -51.08,-122.97l-0.12 -0.12c-31.5,-31.5 -75.06,-51.08 -122.97,-51.08z"/>
   <polygon class="fil5" points="2009.11,5299.13 1997.9,5687.89 2360.56,5683.84 2353.59,5532 2348.83,5349.27 "/>
   <path class="fil4" d="M2021.53 5309.81l-10.63 368.74 343.48 -3.83 -6.53 -142.31 0 -0.18 -4.56 -174.93 -321.76 -47.49zm-29.37 377.83l11.22 -388.76 0.3 -10.42 10.27 1.52 339.72 50.14 7.69 1.14 0.2 7.8 4.76 182.56 0 0 6.97 151.84 0.44 9.52 -9.59 0.11 -362.66 4.04 -9.58 0.11 0.28 -9.59z"/>
   <path class="fil5" d="M2304.11 4652.57c-10.96,-11.69 -389.27,-10.18 -336.51,399.81 0,0 -99.4,-59.02 -74.55,90.08 0,0 0,52.82 74.55,49.71 0,0 85.81,344.4 310.04,311.97 224.23,-32.43 208.7,-246.75 208.7,-246.75l0 -366.53c0,0 44.52,-251.19 -182.22,-238.3z"/>
   <path class="fil4" d="M2297.38 4658.9c-1.46,-1.55 -22.38,-1.72 -54.33,2.39 -25.48,3.28 -56.63,10.16 -88.64,23 -31.85,12.78 -64.53,31.48 -93.25,58.43 -61.09,57.35 -104.47,152.49 -84.4,308.5l2.4 18.65 -16.23 -9.49c-0.23,-0.14 -82.33,-48.92 -60.75,80.56l0.11 1.26c0,0.12 -0.07,43.44 64.95,40.73l7.44 -0.31 1.87 7.26c0.24,0.96 83.84,336.32 299.79,305.09 215.69,-31.19 200.81,-236.43 200.77,-237.01l-0.04 -0.58 0 -366.52 0.15 -1.56c0.11,-0.68 42.47,-239.73 -172.59,-227.51l-4.3 0.24 -2.94 -3.14zm-56.65 -15.93c28.56,-3.68 51.71,-2.32 63.03,0.36 230.46,-12.98 194.54,231.56 191.84,248.2l0 365.86 -0 0c0.7,12.21 9.68,223.19 -216.66,255.91 -213.25,30.84 -304.51,-262.22 -318.37,-311.76 -71.83,-0.31 -76.43,-51.53 -76.72,-58.13 -21.29,-128.86 41.93,-118.41 72.67,-106.46 -15.87,-153.39 29.32,-248.9 91.97,-307.7 30.57,-28.69 65.27,-48.57 99.04,-62.11 33.61,-13.49 66.36,-20.72 93.2,-24.17z"/>
   <g>
    <path class="fil6" d="M2125.73 8036.15c-10.5,-59.41 -19,-112.93 -24.81,-158.03 -19.9,-153.04 -11.26,-263.39 6.48,-341.38 10.56,-46.05 24.69,-80.83 37.89,-106.27 4.33,-7.68 8.17,-14.63 12.25,-20.87 18.23,-28.78 32.88,-40.06 32.88,-40.06l546.95 0c0,0 7.92,27.35 20.64,81.09 4.31,17.97 9.12,39.1 14.38,63.33 24.19,111.8 56.93,287.26 85.26,522.19l-731.92 0z"/>
    <path class="fil6" d="M2571.36 7456.63l-3.11 90.93 -0.23 9.58 -13.19 397.28c-0.87,27.76 -5.39,55.17 -13.32,81.73l-930.67 0c-27.22,-261.75 28.46,-449.29 77.48,-557.45 11.29,-24.94 22.08,-45.59 31.67,-62.13 18,-31.19 30.69,-47.03 30.69,-47.03l406.87 40.06 214 21.1 74.36 9.62 114.91 14.87 10.56 1.44z"/>
   </g>
   <path class="fil7" d="M1661.63 7442.33c0,0 125.13,-179.17 -4.66,-1070.78l-73.36 174.93 -389.37 -208.8 285.81 -488.31c27.33,-46.7 17.23,-44.73 67.11,-64l457.51 -176.77c30.43,38.93 98.76,66.06 178.2,66.06 79.59,0 148.03,-27.24 178.37,-66.28l422.39 113.19c54.52,14.57 41.41,9.08 66.35,59.31l329.24 662.61 -321.66 135.44 -62.07 -214.44c0,0 22.57,925.47 -11.28,1077.84l-1122.56 0z"/>
   <path class="fil8" d="M1600.17 6277.25c0.21,0.03 63.69,10.12 56.8,94.3l0 0 0 0c5.31,-64.95 -59.82,-73.84 -59.97,-73.86l3.17 -20.44z"/>
   <path class="fil8" d="M1938.02 5634.36l66.66 -25.76c30.42,38.93 98.76,66.06 178.2,66.06 79.58,0 148.03,-27.24 178.37,-66.28l72.58 19.45c-23.43,67.57 -126.09,118.44 -249.17,118.44 -119.1,0 -219.05,-47.63 -246.63,-111.92z"/>
   <path class="fil5" d="M2917.8 6264.85l-492.44 0c-25.98,0 -38.46,22.82 -47.22,47.22l-259.05 721.8c-8.76,24.41 21.29,47.22 47.22,47.22l492.44 0c25.94,0 38.46,-22.78 47.22,-47.22l259.05 -721.8c8.77,-24.44 -21.25,-47.22 -47.22,-47.22z"/>
   <path class="fil4" d="M2917.8 6256.21l-492.44 0c-15.88,0 -27.59,6.91 -36.61,17.5 -8.27,9.7 -14.04,22.42 -18.72,35.46l-259.05 721.8c-1.43,3.98 -2.09,7.88 -2.09,11.65 0,10.07 4.5,19.4 11.61,27.05 6.6,7.1 15.61,12.83 25.25,16.3 6.72,2.41 13.77,3.76 20.54,3.76l492.44 0c15.85,0 27.56,-6.9 36.59,-17.48 8.28,-9.7 14.05,-22.41 18.73,-35.48l259.05 -721.8 0.03 0c1.41,-3.94 2.06,-7.84 2.06,-11.67 0,-10.08 -4.5,-19.4 -11.6,-27.05 -6.61,-7.11 -15.6,-12.82 -25.24,-16.28 -6.73,-2.41 -13.79,-3.76 -20.57,-3.76zm-492.44 17.28l492.44 0c4.91,0 9.98,0.96 14.77,2.68 7.1,2.55 13.67,6.7 18.43,11.82 4.25,4.57 6.94,9.89 6.94,15.31 0,1.91 -0.33,3.89 -1.04,5.87l0.02 0.01 -259.04 721.8c-4.07,11.38 -8.96,22.28 -15.62,30.08 -5.89,6.91 -13.43,11.41 -23.51,11.41l-492.44 0c-4.89,0 -9.95,-0.97 -14.74,-2.68 -7.09,-2.55 -13.68,-6.71 -18.44,-11.84 -4.26,-4.58 -6.95,-9.89 -6.95,-15.31 0,-1.96 0.32,-3.93 1.01,-5.85l259.05 -721.8c4.07,-11.35 8.95,-22.26 15.6,-30.07 5.89,-6.91 13.43,-11.42 23.52,-11.42z"/>
   <path class="fil5" d="M2795.81 7014.71l-115.54 17.5c0,0 -44.97,3.55 -38.8,-70.52l0 -67.01c0,0 -3.53,-40.57 91.7,-15.87 0,0 49.37,-68.78 112.85,3.53l93.47 0c49.22,0 -42.22,-194.23 -70.94,-301.48l14.45 -40.27 255.76 -123.83 72.1 389.94c25.67,138.78 121.48,364.37 -146.16,290.76 -21.78,-5.99 -41.79,-11.45 -60.11,-16.41 -8.57,-2.33 -208.77,-66.34 -208.79,-66.34z"/>
   <path class="fil4" d="M2794.53 7006.17l-115.16 17.44c-3.04,0.11 -34.37,-0.28 -29.29,-61.22l0.04 -0.71 0 -67.01 -0.04 -0.37c0,-0.07 -2.8,-28.88 80.94,-7.17l5.64 1.46 3.46 -4.7c0.12,-0.17 43.11,-60.06 99.43,4.1l2.61 2.97 3.87 0 93.47 0c16.22,0 22.93,-11.39 22.93,-30.8 0,-34.57 -23.71,-100.73 -47.36,-166.77l-0.03 0c-14.3,-39.9 -28.57,-79.77 -37.45,-112.22l12.33 -34.37 242.44 -117.39 70.04 378.81c3.83,20.7 9.01,42.55 14.33,65.04 15.06,63.63 31.36,132.51 18.83,178.07 -12.59,45.78 -57.04,68.49 -168.6,37.8l-31.35 -8.59 0 -0.04 -28.76 -7.82c-7.85,-2.13 -155.15,-49.18 -197.25,-62.63l-11.2 -3.57 -3.87 -0.34zm-112.97 34.57l113.62 -17.21 9.24 2.95c42.49,13.57 191.09,61.04 197.93,62.89l28.76 7.82 0.01 -0.04 31.34 8.59c124.12,34.13 174.45,5.63 189.71,-49.88 13.72,-49.86 -3.1,-120.88 -18.63,-186.5 -5.36,-22.67 -10.59,-44.7 -14.19,-64.22l-72.09 -389.94 -2.06 -11.12 -10.15 4.91 -255.76 123.83 -4.35 4.86 -14.45 40.27 -0.24 5.13c8.85,33.04 23.72,74.57 38.61,116.11l-0.02 0.01c23.15,64.61 46.34,129.35 46.34,160.96 0,8.52 -1.65,13.52 -5.65,13.52l-89.67 0c-58.72,-63.93 -106.5,-19.75 -119.86,-4.57 -96.2,-23.34 -97.24,21 -97.11,25.55l-0.02 0 0 66.79c-6.76,83.67 47.96,79.35 48.11,79.35l0.61 -0.07z"/>
   <polygon class="fil8" points="3135.94,6356.42 3179.21,6443.5 2882.1,6568.59 2923.92,6452.07 "/>
   <polygon class="fil9" points="2656.39,6601.81 2470.89,6601.81 2427.71,6744.14 2613.22,6744.14 "/>
   <path class="fil5" d="M1301.22 6347.98l-137.55 271.57c0,0 -137.55,289.21 134.03,303.32 271.57,14.11 811.2,112.86 811.2,112.86 0,0 49.38,-49.37 119.91,8.82 70.54,58.2 197.52,-160.48 8.82,-185.17 0,0 -98.76,-14.11 -155.19,65.25l-597.82 -215.15c0,0 -79.35,-3.53 -35.27,-79.35 44.09,-75.83 93.46,-146.37 93.46,-146.37l-241.59 -135.79z"/>
   <path class="fil4" d="M1293.53 6344.1l-137.55 271.57 -0.14 0.24c-0.41,0.86 -143.06,300.79 141.42,315.57 271.07,14.08 808.54,112.45 810.09,112.73l4.35 0.8 3.17 -3.06c0.12,-0.12 43.94,-43.98 108.48,9.26 21.28,17.55 46.42,14.33 68.53,-0.8 17.86,-12.22 33.73,-32.54 43.34,-55.59 9.68,-23.21 13.15,-49.43 6.16,-73.3 -9.91,-33.83 -40.27,-62.5 -102.63,-70.67l-0.07 -0.03c-0.29,-0.04 -99.33,-14.18 -159.33,63.56l-591.83 -212.99 -2.53 -0.5c-0.18,-0 -65.12,-2.9 -28.19,-66.43 43.98,-75.64 92.92,-145.57 93.06,-145.77l5.45 -7.78 -8.29 -4.66 -241.59 -135.79 -7.84 -4.4 -4.07 8.04zm-122.05 279.09l133.35 -263.29 225.52 126.76c-14.02,20.43 -52.96,78.1 -88.46,139.16 -47.59,81.84 29.54,91.24 40.95,92.18l596.69 214.74 6.13 2.21 3.78 -5.32c53.37,-75.06 146.86,-61.7 147.13,-61.68l0.01 -0.02c54.16,7.11 80.14,30.7 88.25,58.38 5.8,19.83 2.75,42.01 -5.54,61.89 -8.36,20.04 -21.95,37.57 -37.14,47.96 -15.9,10.88 -33.56,13.55 -47.88,1.74 -65.4,-53.95 -114.81,-21.94 -127.91,-11.38 -49.89,-9.05 -549.55,-98.82 -808.24,-112.26 -258.65,-13.44 -127,-290.29 -126.64,-291.08l-0.02 -0z"/>
   <polygon class="fil8" points="1617.8,6464.98 1583.61,6546.48 1194.24,6337.69 1245.54,6250.05 "/>
   <path class="fil8" d="M1702.13 7291.38c3.04,-21.91 5.78,-46.73 7.99,-74.73l1089.94 0c-0.68,26.4 -1.5,51.43 -2.47,74.73l-1095.46 0z"/>
   <path class="fil8" d="M1661.63 7442.33c0,0 13.15,-18.89 26.51,-74.74l1105.17 0c-2.45,32.56 -5.45,58.2 -9.13,74.74l-1122.56 0z"/>
   <path class="fil10" d="M2495.6 5048.27c-14.15,-3.99 -12.26,-0.31 -18.54,-11.74l0 -119.24c-25.67,-77.92 -76.14,-127.6 -76.14,-127.6 14.78,-12.83 18.43,-20.52 27.96,-37.39 13.91,-24.56 26.02,-47.94 28.11,-75.66 25.01,22.87 42.63,51.05 51.57,71.6 6.2,14.26 9.5,29.46 10.01,44.99 1.93,59.15 -11.44,212.74 -22.98,255.04z"/>
   <path class="fil10" d="M2123.57 4775.9c-15.95,56.1 -78.72,98.42 -133.48,120.67 -3.79,36.96 -33.09,126.21 -34.26,143.13l-0.36 -0.47c-14.73,-7.39 -34.48,-12.3 -49.99,-4.52 -1.56,0.78 -3.02,1.66 -4.43,2.63 -4.43,-30.49 -28.59,-212.58 -26.36,-223.08 2.43,-11.62 17.85,-44.08 54.13,-89.89 -21.3,9.68 -26.26,4.57 -26.26,4.57 0,0 10.85,-5.25 46.78,-48.43 35.98,-43.23 89.37,-79.8 161.15,-90.89 18.58,-2.86 43.43,-1.7 71.05,1.95 78.92,10.41 180.31,40.75 222.33,52.96 19.01,5.49 37.69,18.13 55.19,33.94 0.54,0.44 1.02,0.88 1.56,1.36 -2.09,27.72 -11.09,55 -25,79.56 -9.53,16.88 -29.89,29.56 -34.69,30.3 -13.63,3.37 -41.12,5.25 -69.43,1.35 -4.04,-0.53 -8.22,-1.12 -12.54,-1.7 -41.24,-5.63 -97.19,-13.07 -163.29,-21.47 -0.69,-0.09 -31.4,8.12 -32.1,8.03z"/>
   <path class="fil10" d="M2124.95 4709.31c-24.22,73.61 38.04,138.1 110.35,138.8 47.15,0.45 96.27,-14.78 135.63,-40.44 82.06,-53.49 100.59,-172.15 47.77,-252.96 -7.68,-11.75 -17.56,-21.98 -27.91,-31.39 1.27,21.14 2.8,34.57 -7.42,54.83 0.54,-15.42 -10.64,-59.46 -28.24,-75.46 -10.55,32.04 -47.09,79.88 -109.16,100.77 10.08,-12.15 6.2,-38.74 1.04,-53.72 -1.61,14.86 -73.09,60.21 -92.5,69.71 0,0 -29.5,89.71 -29.56,89.87z"/>
   <path class="fil10" d="M2460.91 4600.03c6.02,27.14 5.3,55.85 -0.9,83.39 -4.24,18.91 -11.74,37.28 -22.18,53.85 -0.04,0.01 -0.04,0.01 -0.04,0.01 -4.78,7.55 -10.15,14.65 -16.16,21.35 -19.01,21.29 -43.33,37.48 -69.56,47.65 -13.06,5.37 -26.62,9.06 -40.17,12.3 -6.87,1.31 -13.79,2.29 -20.64,3.5 -6.88,0.76 -13.79,1.43 -20.69,1.99 6.71,-1.67 13.44,-3.25 20.18,-4.68 6.64,-1.91 13.27,-3.66 19.87,-5.7 13.07,-4.15 26.06,-8.59 38.3,-14.63 24.6,-11.55 47.3,-27.05 65.06,-47.26 4.89,-5.34 9.33,-11 13.42,-16.96 11.12,-16.17 19.37,-34.41 24.99,-53.43 3.95,-12.98 6.38,-26.46 7.69,-40.12 0.93,-7.7 1.37,-15.46 1.41,-23.24 0.03,-5.95 -0.17,-11.99 -0.57,-18.02z"/>
   <path class="fil10" d="M2380.3 4680.97c-0.92,20.26 -5.44,40.38 -12.53,59.58 -7.06,19.23 -17.14,37.48 -29.97,53.74 -12.7,16.42 -29.46,29.63 -47.73,39.18 -18.12,10.35 -39.07,13.59 -59.02,15.24 4.87,-1.54 9.7,-2.97 14.53,-4.28 4.84,-1.26 9.63,-2.6 14.1,-4.89l13.68 -5.73 12.8 -7.34c16.48,-10.43 31.78,-22.98 43.65,-38.63 12.27,-15.24 22.26,-32.35 30.58,-50.34 8.08,-18.09 15.07,-36.91 19.91,-56.54z"/>
   <path class="fil10" d="M2132.4 4728.19c-5.76,19.04 -8.11,37.96 -4.34,56.04 1.87,8.95 4.63,17.87 9.13,26.15 1.83,4.39 4.74,8.19 7.04,12.46 2.56,4.11 5.6,7.91 8.18,12.33 -4.14,-2.75 -8.27,-5.72 -12.05,-9.1 -3.38,-3.72 -7.36,-7.11 -10.02,-11.53 -6.35,-8.17 -10.09,-18.21 -12.35,-28.37 -2.02,-10.27 -1.74,-20.96 0.81,-30.96 2.44,-9.97 6.93,-19.46 13.61,-27.03z"/>
   <path class="fil11" d="M1997.77 4832.43c-9.53,116.67 -18.61,237.45 -18.61,237.45l-23.7 -30.65 -31.46 -78.14 12.87 -146.83c0,0 62.19,2.33 60.89,18.17z"/>
   <path class="fil10" d="M2107.65 4724.42c-5.76,19.04 -8.11,37.96 -4.34,56.04 1.87,8.94 4.62,17.86 9.12,26.15 1.83,4.38 4.74,8.18 7.04,12.46 2.56,4.12 5.6,7.92 8.18,12.33 -4.14,-2.75 -8.27,-5.72 -12.04,-9.1 -3.38,-3.72 -7.37,-7.11 -10.02,-11.53 -6.35,-8.17 -10.09,-18.21 -12.35,-28.37 -2.03,-10.27 -1.74,-20.96 0.81,-30.96 2.45,-9.98 6.93,-19.46 13.61,-27.03z"/>
  </g>
  <g id="_1007658704">
   <rect class="fil3" x="5750.24" y="2131.64" width="3629.38" height="3687.75" rx="78.5" ry="203.12"/>
   <path class="fil4" d="M9189.09 2094.08l-3248.31 0c-62.57,0 -119.53,25.62 -160.86,66.92l-0.06 0.06 -0.06 0.06c-41.3,41.33 -66.92,98.3 -66.92,160.86l0 3307.04c0,62.56 25.62,119.53 66.92,160.86l0.06 0.06 0.06 0.06c41.33,41.3 98.3,66.92 160.86,66.92l3248.31 0c62.57,0 119.53,-25.62 160.86,-66.92l0.06 -0.06 0.06 -0.06c41.3,-41.33 66.92,-98.3 66.92,-160.86l0 -3307.04c0,-62.57 -25.62,-119.53 -66.92,-160.86l-0.06 -0.06 -0.06 -0.06c-41.33,-41.3 -98.3,-66.92 -160.86,-66.92zm-3248.31 53.73l3248.31 0c47.91,0 91.47,19.59 122.97,51.08l0.12 0.12c31.5,31.5 51.08,75.06 51.08,122.97l0 3307.04c0,47.91 -19.59,91.47 -51.08,122.97l-0.12 0.12c-31.5,31.5 -75.06,51.08 -122.97,51.08l-3248.31 0c-47.91,0 -91.47,-19.59 -122.97,-51.08l-0.12 -0.12c-31.5,-31.5 -51.08,-75.06 -51.08,-122.97l0 -3307.04c0,-47.91 19.59,-91.47 51.08,-122.97l0.12 -0.12c31.5,-31.5 75.06,-51.08 122.97,-51.08z"/>
   <polygon class="fil5" points="7836.65,3066.19 7847.86,3454.94 7485.2,3450.9 7492.17,3299.06 7496.93,3116.32 "/>
   <path class="fil4" d="M7824.23 3076.86l10.63 368.74 -343.48 -3.83 6.53 -142.31 0 -0.18 4.56 -174.93 321.76 -47.49zm29.37 377.83l-11.22 -388.76 -0.3 -10.42 -10.27 1.52 -339.72 50.14 -7.69 1.14 -0.2 7.8 -4.76 182.56 -0 0 -6.97 151.84 -0.44 9.52 9.59 0.11 362.66 4.04 9.58 0.11 -0.28 -9.59z"/>
   <path class="fil5" d="M7541.65 2419.63c10.96,-11.69 389.27,-10.18 336.51,399.81 0,0 99.4,-59.02 74.55,90.08 0,0 0,52.82 -74.55,49.71 0,0 -85.81,344.4 -310.04,311.97 -224.23,-32.43 -208.7,-246.75 -208.7,-246.75l0 -366.53c0,0 -44.52,-251.19 182.22,-238.3z"/>
   <path class="fil4" d="M7548.39 2425.96c1.46,-1.55 22.38,-1.72 54.33,2.39 25.48,3.28 56.63,10.16 88.64,23 31.85,12.78 64.53,31.48 93.25,58.43 61.09,57.35 104.47,152.49 84.4,308.5l-2.4 18.65 16.23 -9.49c0.23,-0.14 82.33,-48.92 60.75,80.56l-0.11 1.26c0,0.12 0.07,43.44 -64.95,40.73l-7.44 -0.31 -1.87 7.26c-0.24,0.96 -83.84,336.32 -299.79,305.09 -215.69,-31.19 -200.81,-236.43 -200.77,-237.01l0.04 -0.58 0 -366.52 -0.15 -1.56c-0.11,-0.68 -42.47,-239.73 172.59,-227.51l4.3 0.24 2.94 -3.14zm56.65 -15.93c-28.56,-3.68 -51.71,-2.32 -63.03,0.36 -230.46,-12.98 -194.54,231.56 -191.84,248.2l0 365.86 0 0c-0.7,12.21 -9.68,223.19 216.66,255.91 213.25,30.84 304.51,-262.22 318.37,-311.76 71.83,-0.31 76.43,-51.53 76.72,-58.13 21.29,-128.86 -41.93,-118.41 -72.67,-106.46 15.87,-153.39 -29.32,-248.9 -91.97,-307.7 -30.57,-28.69 -65.27,-48.57 -99.04,-62.11 -33.61,-13.49 -66.36,-20.72 -93.2,-24.17z"/>
   <g>
    <path class="fil6" d="M7720.03 5803.2c10.5,-59.41 19,-112.93 24.81,-158.03 19.9,-153.04 11.26,-263.39 -6.48,-341.38 -10.56,-46.05 -24.69,-80.83 -37.89,-106.27 -4.33,-7.68 -8.17,-14.63 -12.25,-20.87 -18.23,-28.78 -32.88,-40.06 -32.88,-40.06l-546.95 0c0,0 -7.92,27.35 -20.64,81.09 -4.31,17.97 -9.12,39.1 -14.38,63.33 -24.19,111.8 -56.93,287.26 -85.26,522.19l731.92 0z"/>
    <path class="fil6" d="M7274.41 5223.68l3.11 90.93 0.23 9.58 13.19 397.28c0.87,27.76 5.39,55.17 13.32,81.73l930.67 0c27.22,-261.75 -28.46,-449.29 -77.48,-557.45 -11.29,-24.94 -22.08,-45.59 -31.67,-62.13 -18,-31.19 -30.69,-47.03 -30.69,-47.03l-406.87 40.06 -214 21.1 -74.36 9.62 -114.91 14.87 -10.56 1.44z"/>
   </g>
   <path class="fil7" d="M8184.13 5209.39c0,0 -125.13,-179.17 4.66,-1070.78l73.36 174.93 389.37 -208.8 -285.81 -488.31c-27.33,-46.7 -17.23,-44.73 -67.11,-64l-457.51 -176.77c-30.43,38.93 -98.76,66.06 -178.2,66.06 -79.59,0 -148.03,-27.24 -178.37,-66.28l-422.39 113.19c-54.52,14.57 -41.41,9.08 -66.35,59.31l-329.24 662.61 321.66 135.44 62.07 -214.44c0,0 -22.57,925.47 11.28,1077.84l1122.56 0z"/>
   <path class="fil8" d="M8245.59 4044.3c-0.21,0.03 -63.69,10.12 -56.8,94.3l0 0 0 0c-5.31,-64.95 59.82,-73.84 59.97,-73.86l-3.17 -20.44z"/>
   <path class="fil8" d="M7907.74 3401.41l-66.66 -25.76c-30.42,38.93 -98.76,66.06 -178.2,66.06 -79.58,0 -148.03,-27.24 -178.37,-66.28l-72.58 19.45c23.43,67.57 126.09,118.44 249.17,118.44 119.1,0 219.05,-47.63 246.63,-111.92z"/>
   <path class="fil5" d="M6927.96 4031.91l492.44 0c25.98,0 38.46,22.82 47.22,47.22l259.05 721.8c8.76,24.41 -21.29,47.22 -47.22,47.22l-492.44 0c-25.94,0 -38.46,-22.78 -47.22,-47.22l-259.05 -721.8c-8.77,-24.44 21.25,-47.22 47.22,-47.22z"/>
   <path class="fil4" d="M6927.96 4023.27l492.44 0c15.88,0 27.59,6.91 36.61,17.5 8.27,9.7 14.04,22.42 18.72,35.46l259.05 721.8c1.43,3.98 2.09,7.88 2.09,11.65 0,10.07 -4.5,19.4 -11.61,27.05 -6.6,7.1 -15.61,12.83 -25.25,16.3 -6.72,2.41 -13.77,3.76 -20.54,3.76l-492.44 0c-15.85,0 -27.56,-6.9 -36.59,-17.48 -8.28,-9.7 -14.05,-22.41 -18.73,-35.48l-259.05 -721.8 -0.03 0c-1.41,-3.94 -2.06,-7.84 -2.06,-11.67 0,-10.08 4.5,-19.4 11.6,-27.05 6.61,-7.11 15.6,-12.82 25.24,-16.28 6.73,-2.41 13.79,-3.76 20.57,-3.76zm492.44 17.28l-492.44 0c-4.91,0 -9.98,0.96 -14.77,2.68 -7.1,2.55 -13.67,6.7 -18.43,11.82 -4.25,4.57 -6.94,9.89 -6.94,15.31 0,1.91 0.33,3.89 1.04,5.87l-0.02 0.01 259.04 721.8c4.07,11.38 8.96,22.28 15.62,30.08 5.89,6.91 13.43,11.41 23.51,11.41l492.44 0c4.89,0 9.95,-0.97 14.74,-2.68 7.09,-2.55 13.68,-6.71 18.44,-11.84 4.26,-4.58 6.95,-9.89 6.95,-15.31 0,-1.96 -0.32,-3.93 -1.01,-5.85l-259.05 -721.8c-4.07,-11.35 -8.95,-22.26 -15.6,-30.07 -5.89,-6.91 -13.43,-11.42 -23.52,-11.42z"/>
   <path class="fil5" d="M7049.96 4781.76l115.54 17.5c0,0 44.97,3.55 38.8,-70.52l0 -67.01c0,0 3.53,-40.57 -91.7,-15.87 0,0 -49.37,-68.78 -112.85,3.53l-93.47 0c-49.22,0 42.22,-194.23 70.94,-301.48l-14.45 -40.27 -255.76 -123.83 -72.1 389.94c-25.67,138.78 -121.48,364.37 146.16,290.76 21.78,-5.99 41.79,-11.45 60.11,-16.41 8.57,-2.33 208.77,-66.34 208.79,-66.34z"/>
   <path class="fil4" d="M7051.24 4773.23l115.16 17.44c3.04,0.11 34.37,-0.28 29.29,-61.22l-0.04 -0.71 0 -67.01 0.04 -0.37c0,-0.07 2.8,-28.88 -80.94,-7.17l-5.64 1.46 -3.46 -4.7c-0.12,-0.17 -43.11,-60.06 -99.43,4.1l-2.61 2.97 -3.87 0 -93.47 0c-16.22,0 -22.93,-11.39 -22.93,-30.8 0,-34.57 23.71,-100.73 47.36,-166.77l0.03 0c14.3,-39.9 28.57,-79.77 37.45,-112.22l-12.33 -34.37 -242.44 -117.39 -70.04 378.81c-3.83,20.7 -9.01,42.55 -14.33,65.04 -15.06,63.63 -31.36,132.51 -18.83,178.07 12.59,45.78 57.04,68.49 168.6,37.8l31.35 -8.59 0 -0.04 28.76 -7.82c7.85,-2.13 155.15,-49.18 197.25,-62.63l11.2 -3.57 3.87 -0.34zm112.97 34.57l-113.62 -17.21 -9.24 2.95c-42.49,13.57 -191.09,61.04 -197.93,62.89l-28.76 7.82 -0.01 -0.04 -31.34 8.59c-124.12,34.13 -174.45,5.63 -189.71,-49.88 -13.72,-49.86 3.1,-120.88 18.63,-186.5 5.36,-22.67 10.59,-44.7 14.19,-64.22l72.09 -389.94 2.06 -11.12 10.15 4.91 255.76 123.83 4.35 4.86 14.45 40.27 0.24 5.13c-8.85,33.04 -23.72,74.57 -38.61,116.11l0.02 0.01c-23.15,64.61 -46.34,129.35 -46.34,160.96 0,8.52 1.65,13.52 5.65,13.52l89.67 0c58.72,-63.93 106.5,-19.75 119.86,-4.57 96.2,-23.34 97.24,21 97.11,25.55l0.02 0 0 66.79c6.76,83.67 -47.96,79.35 -48.11,79.35l-0.61 -0.07z"/>
   <polygon class="fil8" points="6709.82,4123.47 6666.55,4210.55 6963.67,4335.65 6921.84,4219.12 "/>
   <polygon class="fil9" points="7189.37,4368.86 7374.88,4368.86 7418.06,4511.2 7232.54,4511.2 "/>
   <path class="fil5" d="M8544.55 4115.03l137.55 271.57c0,0 137.55,289.21 -134.03,303.32 -271.57,14.11 -811.2,112.86 -811.2,112.86 0,0 -49.38,-49.37 -119.91,8.82 -70.54,58.2 -197.52,-160.48 -8.82,-185.17 0,0 98.76,-14.11 155.19,65.25l597.82 -215.15c0,0 79.35,-3.53 35.27,-79.35 -44.09,-75.83 -93.46,-146.37 -93.46,-146.37l241.59 -135.79z"/>
   <path class="fil4" d="M8552.24 4111.15l137.55 271.57 0.14 0.24c0.41,0.86 143.06,300.79 -141.42,315.57 -271.07,14.08 -808.54,112.45 -810.09,112.73l-4.35 0.8 -3.17 -3.06c-0.12,-0.12 -43.94,-43.98 -108.48,9.26 -21.28,17.55 -46.42,14.33 -68.53,-0.8 -17.86,-12.22 -33.73,-32.54 -43.34,-55.59 -9.68,-23.21 -13.15,-49.43 -6.16,-73.3 9.91,-33.83 40.27,-62.5 102.63,-70.67l0.07 -0.03c0.29,-0.04 99.33,-14.18 159.33,63.56l591.83 -212.99 2.53 -0.5c0.18,-0 65.12,-2.9 28.19,-66.43 -43.98,-75.64 -92.92,-145.57 -93.06,-145.77l-5.45 -7.78 8.29 -4.66 241.59 -135.79 7.84 -4.4 4.07 8.04zm122.05 279.09l-133.35 -263.29 -225.52 126.76c14.02,20.43 52.96,78.1 88.46,139.16 47.59,81.84 -29.54,91.24 -40.95,92.18l-596.69 214.74 -6.13 2.21 -3.78 -5.32c-53.37,-75.06 -146.86,-61.7 -147.13,-61.68l-0.01 -0.02c-54.16,7.11 -80.14,30.7 -88.25,58.38 -5.8,19.83 -2.75,42.01 5.54,61.89 8.36,20.04 21.95,37.57 37.14,47.96 15.9,10.88 33.56,13.55 47.88,1.74 65.4,-53.95 114.81,-21.94 127.91,-11.38 49.89,-9.05 549.55,-98.82 808.24,-112.26 258.65,-13.44 127,-290.29 126.64,-291.08l0.02 -0z"/>
   <polygon class="fil8" points="8227.97,4232.04 8262.15,4313.54 8651.52,4104.74 8600.23,4017.1 "/>
   <path class="fil8" d="M8143.64 5058.43c-3.04,-21.91 -5.78,-46.73 -7.99,-74.73l-1089.94 0c0.68,26.4 1.5,51.43 2.47,74.73l1095.46 0z"/>
   <path class="fil8" d="M8184.13 5209.39c0,0 -13.15,-18.89 -26.51,-74.74l-1105.17 0c2.45,32.56 5.45,58.2 9.13,74.74l1122.56 0z"/>
   <path class="fil10" d="M7350.17 2815.32c14.15,-3.99 12.26,-0.31 18.54,-11.74l-0 -119.24c25.67,-77.92 76.14,-127.6 76.14,-127.6 -14.78,-12.83 -18.43,-20.52 -27.96,-37.39 -13.91,-24.56 -26.02,-47.94 -28.11,-75.66 -25.01,22.87 -42.63,51.05 -51.57,71.6 -6.2,14.26 -9.5,29.46 -10.01,44.99 -1.93,59.15 11.44,212.74 22.98,255.04z"/>
   <path class="fil10" d="M7722.2 2542.96c15.95,56.1 78.72,98.42 133.48,120.67 3.79,36.96 33.09,126.21 34.26,143.13l0.36 -0.47c14.73,-7.39 34.48,-12.3 49.99,-4.52 1.56,0.78 3.02,1.66 4.43,2.63 4.43,-30.49 28.59,-212.58 26.36,-223.08 -2.43,-11.62 -17.85,-44.08 -54.13,-89.89 21.3,9.68 26.26,4.57 26.26,4.57 0,0 -10.85,-5.25 -46.78,-48.43 -35.98,-43.23 -89.37,-79.8 -161.15,-90.89 -18.58,-2.86 -43.43,-1.7 -71.05,1.95 -78.92,10.41 -180.31,40.75 -222.33,52.96 -19.01,5.49 -37.69,18.13 -55.19,33.94 -0.54,0.44 -1.02,0.88 -1.56,1.36 2.09,27.72 11.09,55 25,79.56 9.53,16.88 29.89,29.56 34.69,30.3 13.63,3.37 41.12,5.25 69.43,1.35 4.04,-0.53 8.22,-1.12 12.54,-1.7 41.24,-5.63 97.19,-13.07 163.29,-21.47 0.69,-0.09 31.4,8.12 32.1,8.03z"/>
   <path class="fil10" d="M7720.81 2476.37c24.22,73.61 -38.04,138.1 -110.35,138.8 -47.15,0.45 -96.27,-14.78 -135.63,-40.44 -82.06,-53.49 -100.59,-172.15 -47.77,-252.96 7.68,-11.75 17.56,-21.98 27.91,-31.39 -1.27,21.14 -2.8,34.57 7.42,54.83 -0.54,-15.42 10.64,-59.46 28.24,-75.46 10.55,32.04 47.09,79.88 109.16,100.77 -10.08,-12.15 -6.2,-38.74 -1.04,-53.72 1.61,14.86 73.09,60.21 92.5,69.71 0,0 29.5,89.71 29.56,89.87z"/>
   <path class="fil10" d="M7384.85 2367.08c-6.02,27.14 -5.3,55.85 0.9,83.39 4.24,18.91 11.74,37.28 22.18,53.85 0.04,0.01 0.04,0.01 0.04,0.01 4.78,7.55 10.15,14.65 16.16,21.35 19.01,21.29 43.33,37.48 69.56,47.65 13.06,5.37 26.62,9.06 40.17,12.3 6.87,1.31 13.79,2.29 20.64,3.5 6.88,0.76 13.79,1.43 20.69,1.99 -6.71,-1.67 -13.44,-3.25 -20.18,-4.68 -6.64,-1.91 -13.27,-3.66 -19.87,-5.7 -13.07,-4.15 -26.06,-8.59 -38.3,-14.63 -24.6,-11.55 -47.3,-27.05 -65.06,-47.26 -4.89,-5.34 -9.33,-11 -13.42,-16.96 -11.12,-16.17 -19.37,-34.41 -24.99,-53.43 -3.95,-12.98 -6.38,-26.46 -7.69,-40.12 -0.93,-7.7 -1.37,-15.46 -1.41,-23.24 -0.03,-5.95 0.17,-11.99 0.57,-18.02z"/>
   <path class="fil10" d="M7465.47 2448.03c0.92,20.26 5.44,40.38 12.53,59.58 7.06,19.23 17.14,37.48 29.97,53.74 12.7,16.42 29.46,29.63 47.73,39.18 18.12,10.35 39.07,13.59 59.02,15.24 -4.87,-1.54 -9.7,-2.97 -14.53,-4.28 -4.84,-1.26 -9.63,-2.6 -14.1,-4.89l-13.68 -5.73 -12.8 -7.34c-16.48,-10.43 -31.78,-22.98 -43.65,-38.63 -12.27,-15.24 -22.26,-32.35 -30.58,-50.34 -8.08,-18.09 -15.07,-36.91 -19.91,-56.54z"/>
   <path class="fil10" d="M7713.36 2495.24c5.76,19.04 8.11,37.96 4.34,56.04 -1.87,8.95 -4.63,17.87 -9.13,26.15 -1.83,4.39 -4.74,8.19 -7.04,12.46 -2.56,4.11 -5.6,7.91 -8.18,12.33 4.14,-2.75 8.27,-5.72 12.05,-9.1 3.38,-3.72 7.36,-7.11 10.02,-11.53 6.35,-8.17 10.09,-18.21 12.35,-28.37 2.02,-10.27 1.74,-20.96 -0.81,-30.96 -2.44,-9.97 -6.93,-19.46 -13.61,-27.03z"/>
   <path class="fil11" d="M7848 2599.49c9.53,116.67 18.61,237.45 18.61,237.45l23.7 -30.65 31.46 -78.14 -12.87 -146.83c0,0 -62.19,2.33 -60.89,18.17z"/>
   <path class="fil10" d="M7738.11 2491.47c5.76,19.04 8.11,37.96 4.34,56.04 -1.87,8.94 -4.62,17.86 -9.12,26.15 -1.83,4.38 -4.74,8.18 -7.04,12.46 -2.56,4.12 -5.6,7.92 -8.18,12.33 4.14,-2.75 8.27,-5.72 12.04,-9.1 3.38,-3.72 7.37,-7.11 10.02,-11.53 6.35,-8.17 10.09,-18.21 12.35,-28.37 2.03,-10.27 1.74,-20.96 -0.81,-30.96 -2.45,-9.98 -6.93,-19.46 -13.61,-27.03z"/>
  </g>
  <g id="_1007657384">
   <path class="fil12" d="M6368.42 3417.95l-174.48 235.76 -174.48 -235.76 -1894.65 0c-25.52,0 -46.4,-20.88 -46.4,-46.4l0 -910.63c0,-25.52 20.88,-46.4 46.4,-46.4l2618.71 0c25.52,0 46.4,20.88 46.4,46.4l0 910.63c0,25.52 -20.88,46.4 -46.4,46.4l-375.09 0z"/>
   <path class="fil4" d="M6372.59 3426.28l-171.98 232.38 -6.67 9.02 -6.67 -9.02 -171.98 -232.38 -1890.48 0c-15.06,0 -28.74,-6.16 -38.66,-16.07 -9.91,-9.91 -16.07,-23.6 -16.07,-38.66l0 -910.63c0,-15.06 6.16,-28.74 16.07,-38.66 9.91,-9.91 23.6,-16.07 38.66,-16.07l2618.71 0c15.06,0 28.74,6.16 38.66,16.07 9.91,9.91 16.07,23.6 16.07,38.66l0 910.63c0,15.06 -6.16,28.74 -16.07,38.66 -9.91,9.91 -23.6,16.07 -38.66,16.07l-370.93 0zm-178.65 213.46l167.81 -226.75 2.51 -3.39 4.17 0 375.09 0c10.46,0 19.98,-4.29 26.88,-11.19 6.9,-6.9 11.19,-16.42 11.19,-26.88l0 -910.63c0,-10.46 -4.29,-19.98 -11.19,-26.88 -6.9,-6.9 -16.42,-11.19 -26.88,-11.19l-2618.71 0c-10.46,0 -19.98,4.29 -26.88,11.19 -6.9,6.9 -11.19,16.42 -11.19,26.88l0 910.63c0,10.46 4.29,19.98 11.19,26.88 6.9,6.9 16.42,11.19 26.88,11.19l1894.65 0 4.17 0 2.5 3.39 167.81 226.75z"/>
   <g>
    <rect class="fil13" x="4225.47" y="3142.62" width="2417.38" height="89.67" rx="25.11" ry="18.54"/>
    <rect class="fil13" x="4225.47" y="2961.81" width="2417.38" height="89.67" rx="25.11" ry="18.54"/>
    <rect class="fil13" x="4225.47" y="2781" width="2417.38" height="89.67" rx="25.11" ry="18.54"/>
    <rect class="fil13" x="4225.47" y="2600.2" width="2417.38" height="89.67" rx="25.11" ry="18.54"/>
   </g>
  </g>
  <g id="_1007656376">
   <path class="fil12" d="M3301.15 5563.33l154.49 208.75 154.48 -208.75 1677.55 0c22.6,0 41.08,-18.49 41.08,-41.08l0 -806.28c0,-22.59 -18.48,-41.08 -41.08,-41.08l-2318.64 0c-22.59,0 -41.08,18.49 -41.08,41.08l0 806.28c0,22.59 18.49,41.08 41.08,41.08l332.11 0z"/>
   <path class="fil4" d="M3297.45 5570.71l152.27 205.75 5.91 7.98 5.91 -7.98 152.27 -205.75 1673.86 0c13.33,0 25.45,-5.45 34.23,-14.23 8.78,-8.78 14.23,-20.9 14.23,-34.23l0 -806.28c0,-13.33 -5.45,-25.45 -14.23,-34.23 -8.78,-8.78 -20.9,-14.23 -34.23,-14.23l-2318.64 0c-13.33,0 -25.45,5.46 -34.23,14.23 -8.78,8.78 -14.23,20.9 -14.23,34.23l0 806.28c0,13.33 5.46,25.45 14.23,34.23 8.78,8.78 20.9,14.23 34.23,14.23l328.42 0zm158.18 189l-148.58 -200.76 -2.22 -3 -3.69 0 -332.11 0c-9.26,0 -17.69,-3.8 -23.8,-9.9 -6.11,-6.11 -9.9,-14.54 -9.9,-23.8l0 -806.28c0,-9.26 3.8,-17.69 9.9,-23.8 6.11,-6.11 14.54,-9.9 23.8,-9.9l2318.64 0c9.26,0 17.69,3.8 23.8,9.9 6.11,6.11 9.91,14.54 9.91,23.8l0 806.28c0,9.26 -3.8,17.69 -9.91,23.8 -6.11,6.11 -14.54,9.9 -23.8,9.9l-1677.55 0 -3.69 0 -2.22 3 -148.58 200.76z"/>
   <g>
    <rect class="fil13" x="3058.16" y="5319.55" width="2140.38" height="79.4" rx="22.23" ry="16.42"/>
    <rect class="fil13" x="3058.16" y="5159.46" width="2140.38" height="79.4" rx="22.23" ry="16.42"/>
    <rect class="fil13" x="3058.16" y="4999.37" width="2140.38" height="79.4" rx="22.23" ry="16.42"/>
    <rect class="fil13" x="3058.16" y="4839.28" width="2140.38" height="79.4" rx="22.23" ry="16.42"/>
   </g>
  </g>
 </g>
</svg>
