<?xml version="1.0" ?>
<!-- Uploaded to: SVG Repo, www.svgrepo.com, Generator: SVG Repo Mixer Tools -->
<svg width="800px" height="800px" viewBox="0 0 50 50" id="Message_And_Communication_Icons" version="1.1" xml:space="preserve" xmlns="http://www.w3.org/2000/svg" xmlns:xlink="http://www.w3.org/1999/xlink">
<g>
<g>
<g>
<g>
<path d="M24.8,18.7l-0.9,0.8c0,0.4,0.1,0.7,0.1,1.1c0,4.2-3.5,7.5-7.6,7.5c-0.9,0-1.7-0.2-2.5-0.5      c1.4,1.5,3.3,2.4,5.5,2.5c4.2,0,7.6-3.3,7.6-7.5c0-1.4-0.4-2.8-1.1-3.9H24.8z" style="fill:#4DE0F9;"/>
</g>
</g>
<g>
<g>
<polygon points="40.4,6.6 40.4,17.7 22.8,17.7 22.4,18.1 22.4,22.8 25.8,19.7 43.4,19.7 43.4,6.6     " style="fill:#4DE0F9;"/>
</g>
</g>
<g>
<g>
<path d="M18.4,29.7C18.4,29.7,18.4,29.7,18.4,29.7c-2.3,0-4.3-0.9-5.8-2.5c-1.5-1.6-2.3-3.6-2.3-5.8      c0-4.5,3.7-8.1,8.1-8.1c0,0,0.1,0,0.1,0c1.1,0,2.2,0.2,3.2,0.7l-0.5,1.1c-0.9-0.4-1.8-0.6-2.7-0.6c0,0-0.1,0-0.1,0      c-3.8,0-6.9,3.1-7,6.9c0,1.9,0.7,3.6,2,4.9c1.3,1.3,3,2.1,4.9,2.1c0,0,0.1,0,0.1,0c3.8,0,6.9-3.1,7-6.9c0-0.9-0.1-1.7-0.4-2.5      l1.1-0.4c0.3,0.9,0.5,1.9,0.5,2.9C26.5,26.1,22.9,29.7,18.4,29.7z" style="fill:#0D5FC3;"/>
</g>
</g>
<g>
<g>
<path d="M29.2,42.1c0-4.1-2.4-7.6-6-9.1c1.9,1.8,3,4.3,3,7.1l0,2.5H11.6v2h17.6L29.2,42.1z" style="fill:#4DE0F9;"/>
</g>
</g>
<g>
<g>
<path d="M27.6,43.5l0-2.5c0-2.5-0.9-4.8-2.6-6.5s-4-2.7-6.5-2.8c-5.1-0.1-9.2,4-9.3,9.1v2.7H8v-2.7      c0.1-5.7,4.7-10.3,10.4-10.3c0,0,0.1,0,0.1,0c5.7,0.1,10.3,4.8,10.3,10.5l0,2.4H27.6z" style="fill:#0D5FC3;"/>
</g>
</g>
<g>
<g>
<rect height="1.2" style="fill:#0D5FC3;" width="3.5" x="11.7" y="39.8"/>
</g>
</g>
<g>
<g>
<rect height="8.7" style="fill:#0D5FC3;" width="1.2" x="17.8" y="34.8"/>
</g>
</g>
</g>
<g>
<g>
<g>
<path d="M20.8,23.1V5H43v14.3H25L20.8,23.1z M22,6.2v14.2l2.6-2.3h17.3V6.2H22z" style="fill:#0D5FC3;"/>
</g>
</g>
<g>
<g>
<g>
<rect height="1.2" style="fill:#0D5FC3;" width="1.8" x="34.5" y="9.8"/>
</g>
</g>
<g>
<g>
<rect height="1.2" style="fill:#0D5FC3;" width="5" x="27.6" y="9.8"/>
</g>
</g>
<g>
<g>
<rect height="1.2" style="fill:#0D5FC3;" width="8.7" x="27.6" y="13.4"/>
</g>
</g>
</g>
</g>
</g>
</svg>